# xmcd CD database file
#
# Track frame offsets:
#	150
#	11881
#	27193
#	39161
#	51774
#	60382
#	72955
#	83580
#	97076
#	110516
#	124286
#	138697
#
# Disc length: 1987 seconds
#
# Revision: 2
# Processed by: cddbd v1.5.2PL0 Copyright (c) Steve Scherf et al.
# Submitted via: CDex 1.84
#
DISCID=a107c10c
DTITLE=Various Artist - Naturally Country
DYEAR=1900
DGENRE=Country
TTITLE0=Johnny Paycheck - Heartache Number One
TTITLE1=Jim Reeevs - Making believe
TTITLE2=Don Williams - Follow me back to louisville
TTITLE3=Stonewall Jackson - Ol Blue
TTITLE4=Boxcar Willie - If youve go tthe money
TTITLE5=Johnny Paycheck - Crazy Arms
TTITLE6=Johnny Russel - Act naturally
TTITLE7=Don Williams - Where do I go from here
TTITLE8=Faron Young - Swinging Doors
TTITLE9=Willie Nelson - A Moment is'nt very long
TTITLE10=Freddie Fender - Wasted days and wasted nights
TTITLE11=Carl Perkins -  Daddy sang bass
EXTD=
EXTT0=
EXTT1=
EXTT2=
EXTT3=
EXTT4=
EXTT5=
EXTT6=
EXTT7=
EXTT8=
EXTT9=
EXTT10=
EXTT11=
PLAYORDER=
